<?xml version="1.0" standalone="no"?><!DOCTYPE svg PUBLIC "-//W3C//DTD SVG 1.1//EN" "http://www.w3.org/Graphics/SVG/1.1/DTD/svg11.dtd"><svg t="1599057750418" class="icon" viewBox="0 0 1024 1024" version="1.1" xmlns="http://www.w3.org/2000/svg" p-id="3447" width="128" height="128" xmlns:xlink="http://www.w3.org/1999/xlink"><defs><style type="text/css"></style></defs><path d="M897.856 842.56c14.464-6.72 18.624-20.48 9.28-30.848l-241.216-263.296a25.792 25.792 0 0 0-7.68-5.888c-14.016-7.296-33.6-5.184-43.776 4.8l-241.152 233.088-103.808-70.528a30.912 30.912 0 0 0-3.52-1.92c-14.08-7.36-33.664-4.992-43.776 4.864l-101.056 97.728a18.368 18.368 0 0 0-6.08 13.952c0.512 12.288 14.848 22.016 32.128 21.696h732.8a40.768 40.768 0 0 0 17.856-3.648zM259.84 399.68a78.464 78.464 0 0 0 117.504 67.84 78.272 78.272 0 0 0 0-135.744A78.208 78.208 0 0 0 259.84 399.68" p-id="3448" data-spm-anchor-id="a313x.7781069.0.i10" class="selected" fill="#8a8a8a"></path><path d="M864.832 872.256H159.232a83.84 83.84 0 0 1-83.776-83.776V235.52a83.84 83.84 0 0 1 83.776-83.776h705.536a83.84 83.84 0 0 1 83.776 83.776v552.96a83.84 83.84 0 0 1-83.712 83.776zM159.232 183.744a51.84 51.84 0 0 0-51.776 51.776v552.96a51.84 51.84 0 0 0 51.776 51.776h705.536a51.84 51.84 0 0 0 51.776-51.776V235.52a51.84 51.84 0 0 0-51.776-51.776H159.232z" p-id="3449" data-spm-anchor-id="a313x.7781069.0.i13" class="selected" fill="#8a8a8a"></path></svg>