<?xml version="1.0" standalone="no"?><!DOCTYPE svg PUBLIC "-//W3C//DTD SVG 1.1//EN" "http://www.w3.org/Graphics/SVG/1.1/DTD/svg11.dtd"><svg t="1598329211316" class="icon" viewBox="0 0 1024 1024" version="1.1" xmlns="http://www.w3.org/2000/svg" p-id="2522" xmlns:xlink="http://www.w3.org/1999/xlink" width="200" height="200"><defs><style type="text/css"></style></defs><path d="M767.95276 0a162.897688 162.897688 0 0 1 162.804603 157.405709l0.093085 5.608335V977.386128c0 33.440568-34.022346 55.594654-64.228232 43.051532l-3.118327-1.419537L791.223858 982.854837l-72.280031 36.163286a46.542197 46.542197 0 0 1-37.629366 1.768604l-3.979358-1.768604L605.055072 982.854837l-72.280032 36.163286a46.542197 46.542197 0 0 1-37.629366 1.768604l-3.979357-1.768604L418.886285 982.854837l-72.280031 36.163286a46.542197 46.542197 0 0 1-37.629366 1.768604l-3.979358-1.768604L232.717499 982.854837l-72.280031 36.163286a46.542197 46.542197 0 0 1-60.691025-17.616221l-1.745332-3.211412a46.542197 46.542197 0 0 1 17.616221-60.691024l3.211412-1.745332 93.084393-46.542197a46.542197 46.542197 0 0 1 37.629366-1.768603l3.979358 1.768603L325.801892 925.351953l72.280031-36.140016a46.542197 46.542197 0 0 1 37.629366-1.768603l3.979358 1.768603L511.970678 925.351953l72.280032-36.140016a46.542197 46.542197 0 0 1 37.629366-1.768603l3.979357 1.768603L698.139465 925.351953l72.280031-36.140016a46.542197 46.542197 0 0 1 37.629366-1.768603l3.979358 1.768603 25.737835 12.868917V163.014044a69.813295 69.813295 0 0 0-65.717582-69.813295L767.95276 93.084393H255.988597a69.766753 69.766753 0 0 0-69.696939 65.67104L186.175302 162.851146V767.946244a46.542197 46.542197 0 0 1-92.968037 3.490665L93.090909 767.946244V162.851146a162.851146 162.851146 0 0 1 157.312625-162.758062L255.988597 0h511.964163z" fill="#9013FE" p-id="2523"></path><path d="M511.970678 558.506359a46.542197 46.542197 0 0 1 3.490665 92.968038L511.970678 651.590752h-186.168786a46.542197 46.542197 0 0 1-3.490665-92.968037L325.801892 558.506359h186.168786zM698.139465 395.608671a46.542197 46.542197 0 0 1 3.490665 92.968038L698.139465 488.693064H325.801892a46.542197 46.542197 0 0 1-3.490665-92.968037L325.801892 395.608671h372.337573zM698.139465 232.710983a46.542197 46.542197 0 0 1 3.490665 92.968038L698.139465 325.795376H465.428482a46.542197 46.542197 0 0 1-3.490665-92.968038L465.428482 232.710983h232.710983z" fill="#E66CFF" p-id="2524"></path><path d="M325.801892 279.25318m-46.542197 0a46.542197 46.542197 0 1 0 93.084394 0 46.542197 46.542197 0 1 0-93.084394 0Z" fill="#FF9F00" p-id="2525"></path></svg>