<?xml version="1.0" standalone="no"?><!DOCTYPE svg PUBLIC "-//W3C//DTD SVG 1.1//EN" "http://www.w3.org/Graphics/SVG/1.1/DTD/svg11.dtd"><svg t="1598329146863" class="icon" viewBox="0 0 1024 1024" version="1.1" xmlns="http://www.w3.org/2000/svg" p-id="2061" xmlns:xlink="http://www.w3.org/1999/xlink" width="200" height="200"><defs><style type="text/css"></style></defs><path d="M844.799578 0a179.19991 179.19991 0 0 1 179.09751 173.055913L1023.999488 179.19991v665.599668a179.19991 179.19991 0 0 1-173.055913 179.09751L844.799578 1023.999488H153.599923a51.199974 51.199974 0 0 1-3.839998-102.271949L153.599923 921.599539h691.199655a76.799962 76.799962 0 0 0 76.671961-72.294364L921.599539 844.799578V179.19991a76.799962 76.799962 0 0 0-72.294364-76.671961L844.799578 102.399949H179.19991a76.799962 76.799962 0 0 0-76.671961 72.294364L102.399949 179.19991v588.799706a51.199974 51.199974 0 0 1-102.271949 3.839998L0 767.999616V179.19991a179.19991 179.19991 0 0 1 173.055913-179.09751L179.19991 0h665.599668z" fill="#9013FE" p-id="2062"></path><path d="M767.999616 255.999872m-51.199974 0a51.199974 51.199974 0 1 0 102.399948 0 51.199974 51.199974 0 1 0-102.399948 0Z" fill="#FF9F00" p-id="2063"></path><path d="M343.039828 430.079785a51.199974 51.199974 0 0 1 79.257561-3.276798l2.662399 3.276798 121.907139 162.534319 86.758356-69.375966a51.199974 51.199974 0 0 1 60.36477-2.636798l3.583998 2.611198 127.999936 102.399949a51.199974 51.199974 0 0 1-60.56957 82.457559l-3.379198-2.483199L665.599667 628.735686l-95.999952 76.799961a51.199974 51.199974 0 0 1-70.246365-5.913597l-2.713598-3.327998-112.639944-150.195125-112.639944 150.195125a51.199974 51.199974 0 0 1-68.223966 12.620794L199.6799 706.559647a51.199974 51.199974 0 0 1-12.620794-68.223966l2.380799-3.455998 153.599923-204.799898z" fill="#E66CFF" p-id="2064"></path></svg>