<?xml version="1.0" standalone="no"?><!DOCTYPE svg PUBLIC "-//W3C//DTD SVG 1.1//EN" "http://www.w3.org/Graphics/SVG/1.1/DTD/svg11.dtd"><svg t="1598329193413" class="icon" viewBox="0 0 1024 1024" version="1.1" xmlns="http://www.w3.org/2000/svg" p-id="2368" xmlns:xlink="http://www.w3.org/1999/xlink" width="200" height="200"><defs><style type="text/css"></style></defs><path d="M511.999767 558.545201a162.909017 162.909017 0 0 1 162.815926 157.323565L674.908784 721.454218v69.81815a46.545433 46.545433 0 0 1-92.974503 3.490907L581.817917 791.272368v-69.81815a69.81815 69.81815 0 0 0-139.519936-4.095999L442.181617 721.454218v69.81815a46.545433 46.545433 0 0 1-92.974503 3.490907L349.09075 791.272368v-69.81815a162.909017 162.909017 0 0 1 162.909017-162.909017z" fill="#E66CFF" p-id="2369"></path><path d="M907.635951 349.09075a46.545433 46.545433 0 0 1 46.42907 43.054526L954.181384 395.636184v465.454334a162.909017 162.909017 0 0 1-157.323564 162.815926L791.272368 1023.999535H209.45445a46.545433 46.545433 0 0 1-3.490907-92.974504L209.45445 930.908668h581.817918a69.81815 69.81815 0 0 0 69.701786-65.722152L861.090518 861.090518V395.636184a46.545433 46.545433 0 0 1 46.545433-46.545434zM116.363583 349.09075a46.545433 46.545433 0 0 1 46.42907 43.054526L162.909017 395.636184v395.636184a46.545433 46.545433 0 0 1-92.974503 3.490907L69.81815 791.272368V395.636184a46.545433 46.545433 0 0 1 46.545433-46.545434z" fill="#9013FE" p-id="2370"></path><path d="M767.999651 605.090634m-46.545433 0a46.545433 46.545433 0 1 0 93.090866 0 46.545433 46.545433 0 1 0-93.090866 0Z" fill="#FF9F00" p-id="2371"></path><path d="M791.481822 0H232.49444c-36.375256 0-80.989054 18.455264-107.845769 44.28798l-9.658178 9.727995a698.9495 698.9495 0 0 0-51.432704 59.624701c-16.430538 21.434172-30.347623 42.542526-40.983254 63.069062C8.145451 204.520634 0 230.702441 0 255.999884a209.45445 209.45445 0 0 0 209.45445 209.45445l6.795634-0.116364a209.268269 209.268269 0 0 0 140.893026-60.765063l3.583999-3.700362 3.583998 3.700362A209.268269 209.268269 0 0 0 511.999767 465.454334l6.795634-0.116364a209.268269 209.268269 0 0 0 140.893026-60.765063l3.583999-3.700362 3.583998 3.700362A209.45445 209.45445 0 0 0 1023.999535 255.999884c0-42.40289-22.365081-87.412324-59.578155-137.122847a679.656418 679.656418 0 0 0-39.121437-47.336706 650.612068 650.612068 0 0 0-19.595627-20.875627l-3.258181-3.25818C877.777056 20.503263 830.207623 0 791.481822 0zM232.49444 93.090867H791.505095c12.916358 0 35.537438 9.774541 43.938889 18.897446l8.91345 9.122905a619.333537 619.333537 0 0 1 45.56798 53.597066C915.827947 209.291541 930.908668 239.639164 930.908668 255.999884a116.363583 116.363583 0 0 1-224.44208 43.26398c-15.59272-38.9818-70.772331-38.9818-86.388324 0a116.410129 116.410129 0 0 1-216.156993 0c-15.59272-38.9818-70.772331-38.9818-86.388324 0A116.410129 116.410129 0 0 1 93.090867 255.999884c0-7.935996 4.002907-20.712718 12.148358-36.468347 7.842906-15.127266 18.850901-31.813804 32.20944-49.245069a607.185179 607.185179 0 0 1 34.443621-40.890163l10.239995-10.868359c2.094545-2.14109 3.746907-3.839998 4.957089-5.026907 9.983995-10.565813 32.814531-20.410173 45.428342-20.410172z" fill="#9013FE" p-id="2372"></path></svg>