<?xml version="1.0" standalone="no"?><!DOCTYPE svg PUBLIC "-//W3C//DTD SVG 1.1//EN" "http://www.w3.org/Graphics/SVG/1.1/DTD/svg11.dtd"><svg t="1598626122862" class="icon" viewBox="0 0 1024 1024" version="1.1" xmlns="http://www.w3.org/2000/svg" p-id="2277" xmlns:xlink="http://www.w3.org/1999/xlink" width="200" height="200"><defs><style type="text/css"></style></defs><path d="M539.706 70h-54.537c-30.715 0-60.163 12.003-81.83 33.352-19.203 18.923-30.95 43.873-33.215 70.421l-0.376 8.575c-0.419 27.922-22.954 49.704-50.615 49.702-6.273-0.066-12.788-1.499-18.786-4.199l-5.883-3.075c-54.35-30.567-125.014-11.844-156.9 42.43l-28.672 46.201c-30.487 51.87-15.45 117.033 33.763 150.595l6.844 4.307c16.869 9.585 26.512 25.965 26.512 43.691 0 16.302-8.167 31.544-21.788 40.79l-4.65 2.855c-50.986 28.897-71.076 92.674-45.447 145.727l3.746 7.061 28.143 47.657c14.628 25.897 39.696 45.406 69.343 53.669 26.277 7.324 54.32 5.298 79.182-5.667l7.862-3.85c13.231-7.502 26.9-9.3 39.73-5.933 12.83 3.367 23.756 11.62 30.35 22.925 3.636 6.016 5.77 12.22 6.533 18.648l0.375 6.528C369.325 903.137 421.19 954 485.169 954h54.55c60.412 0 110.552-45.512 115.456-104.249l0.358-7.586c-0.035-14.672 5.258-27.29 14.731-36.579 9.473-9.29 22.339-14.48 35.735-14.417 6.158 0.17 12.923 1.68 19.193 4.43l6.01 3.036c50.708 28.705 117.155 13.96 151.378-34.303l4.392-6.712 29.127-47.585c15.682-26.392 19.928-57.403 12.01-86.519-7.017-25.807-23.104-48.323-45.374-63.599l-7.372-4.632c-12.813-7.265-21.26-18.056-24.702-30.716s-1.596-26.142 5.13-37.463c3.723-6.374 8.675-11.679 14.615-15.74l11.36-7.001c46.009-30.631 63.24-90.924 39.022-141.61l-2.512-4.937a31.742 31.742 0 0 0-1.886-3.757l-27.076-46.077c-30.126-51.276-95.266-71.175-149.579-46.135l-7.234 3.664c-12.98 7.447-26.684 9.33-39.586 6.044-12.902-3.285-23.942-11.468-30.685-22.745-3.46-5.719-5.595-11.923-6.357-18.352l-0.375-6.528c0.95-27.756-10.856-57.497-32.68-79.513C600.995 82.403 571.014 69.987 539.706 70z" fill="#2c2c2c" p-id="2278" data-spm-anchor-id="a313x.7781069.0.i27" class=""></path><path d="M512 512m-145 0a145 145 0 1 0 290 0 145 145 0 1 0-290 0Z" fill="#ffffff" p-id="2279" data-spm-anchor-id="a313x.7781069.0.i28" class="selected"></path></svg>