<?xml version="1.0" standalone="no"?><!DOCTYPE svg PUBLIC "-//W3C//DTD SVG 1.1//EN" "http://www.w3.org/Graphics/SVG/1.1/DTD/svg11.dtd"><svg t="1598631507276" class="icon" viewBox="0 0 1024 1024" version="1.1" xmlns="http://www.w3.org/2000/svg" p-id="1294" xmlns:xlink="http://www.w3.org/1999/xlink" width="200" height="200"><defs><style type="text/css"></style></defs><path d="M85.333333 85.333333m213.333334 0l426.666666 0q213.333333 0 213.333334 213.333334l0 426.666666q0 213.333333-213.333334 213.333334l-426.666666 0q-213.333333 0-213.333334-213.333334l0-426.666666q0-213.333333 213.333334-213.333334Z" fill="#FFB531" p-id="1295"></path><path d="M672.682667 673.322667a32 32 0 0 1-22.613334 9.386666 33.536 33.536 0 0 1-22.613333-9.386666l-113.493333-113.493334a118.186667 118.186667 0 0 1-34.133334-83.2v-160a32 32 0 0 1 64 0v160a52.906667 52.906667 0 0 0 15.786667 37.973334l113.066667 113.493333a31.445333 31.445333 0 0 1 0 45.226667z" fill="#030835" p-id="1296"></path></svg>