<?xml version="1.0" standalone="no"?><!DOCTYPE svg PUBLIC "-//W3C//DTD SVG 1.1//EN" "http://www.w3.org/Graphics/SVG/1.1/DTD/svg11.dtd"><svg t="1598625811815" class="icon" viewBox="0 0 1024 1024" version="1.1" xmlns="http://www.w3.org/2000/svg" p-id="1389" xmlns:xlink="http://www.w3.org/1999/xlink" width="200" height="200"><defs><style type="text/css"></style></defs><path d="M736.71 370.63H901.86v-1.453C901.861 238.167 822.44 161 688.037 161H335.86C201.42 161 122 238.166 122 369.177v285.342C122 785.53 201.421 863 335.859 863h352.317C822.579 863 902 785.53 902 654.52v-11.932H736.71c-77.03-0.102-139.36-61.078-139.257-136.182 0.139-74.935 62.4-135.64 139.256-135.776z" fill="#ffb531" p-id="1390" data-spm-anchor-id="a313x.7781069.0.i8" class="selected"></path><path d="M874.018 430c15.45 0.034 27.949 12.863 27.982 28.645v98.73c0 15.817-12.532 28.612-27.982 28.612H747.271c-37.132 0.679-69.656-25.42-77.812-62.517A79.209 79.209 0 0 1 668 508.4c-0.066-43.204 34.05-78.264 76.287-78.4zM746 469c-21.54 0-39 17.46-39 39s17.46 39 39 39 39-17.46 39-39-17.46-39-39-39zM526.803 370.326h-219.96c-16.467-0.068-29.779-13.149-29.71-29.204 0.07-15.987 13.347-28.933 29.71-29H526.94c16.467-0.068 29.918 12.911 29.987 28.966 0.07 16.09-13.243 29.17-29.71 29.238H526.804z" fill="#333333" p-id="1391"></path></svg>