<?xml version="1.0" standalone="no"?><!DOCTYPE svg PUBLIC "-//W3C//DTD SVG 1.1//EN" "http://www.w3.org/Graphics/SVG/1.1/DTD/svg11.dtd"><svg t="1598631720352" class="icon" viewBox="0 0 1365 1024" version="1.1" xmlns="http://www.w3.org/2000/svg" p-id="2800" xmlns:xlink="http://www.w3.org/1999/xlink" width="266.6015625" height="200"><defs><style type="text/css"></style></defs><path d="M842.41 32.028a477.924 477.924 0 0 0 0 955.734 477.924 477.924 0 0 0 0-955.734zM966.429 583.51c22.87 0 41.359 12.345 41.359 27.591s-18.49 27.648-41.359 27.648h-87.38v93.98c0 19.002-12.403 34.532-27.649 34.532s-27.591-15.36-27.591-34.531v-93.98H718.393c-22.87 0-41.358-12.402-41.358-27.649s18.489-27.59 41.358-27.59h105.415v-55.012H718.393c-22.87 0-41.358-12.345-41.358-27.648 0-15.246 18.489-27.591 41.358-27.591h105.415v-22.016a55.41 55.41 0 0 1-16.27-11.492l-115.2-115.769c-15.758-15.758-19.911-36.978-9.387-47.502 10.525-10.468 31.801-6.258 47.389 9.5l115.256 115.77 1.252 1.25c1.365-1.706 2.844-3.412 4.551-5.005L953.23 296.164c16.1-16.157 38.002-20.537 48.754-9.785 10.752 10.752 6.485 32.597-9.785 48.753L890.368 436.964a60.132 60.132 0 0 1-11.662 9.159 36.978 36.978 0 0 1 0.569 6.485v20.65h87.21c22.87 0 41.359 12.346 41.359 27.592 0 15.303-18.49 27.648-41.359 27.648h-87.381v55.011h87.381z" p-id="2801" data-spm-anchor-id="a313x.7781069.0.i14" class="selected" fill="#ffb531"></path><path d="M303.218 209.351l1.194 0.569a51.37 51.37 0 0 1 26.624 67.584 537.145 537.145 0 0 0-44.145 215.04 542.151 542.151 0 0 0 46.762 220.843l3.983 3.982a55.182 55.182 0 0 1-77.938 77.995L60.644 596.366a55.182 55.182 0 0 1 77.994-77.938l48.356 48.413a658.965 658.965 0 0 1-4.21-74.24c0-89.486 17.75-175.844 52.736-256.455a51.428 51.428 0 0 1 67.698-26.738z" p-id="2802"></path></svg>