<?xml version="1.0" standalone="no"?><!DOCTYPE svg PUBLIC "-//W3C//DTD SVG 1.1//EN" "http://www.w3.org/Graphics/SVG/1.1/DTD/svg11.dtd"><svg t="1598329126889" class="icon" viewBox="0 0 1024 1024" version="1.1" xmlns="http://www.w3.org/2000/svg" p-id="1907" xmlns:xlink="http://www.w3.org/1999/xlink" width="200" height="200"><defs><style type="text/css"></style></defs><path d="M972.799514 409.599795a51.199974 51.199974 0 0 1 3.839998 102.271949L972.799514 511.999744H665.599667a102.399949 102.399949 0 0 0-5.119997 204.671898L665.599667 716.799642h307.199847a51.199974 51.199974 0 0 1 3.839998 102.271948L972.799514 819.19959H665.599667a204.799898 204.799898 0 0 1-6.399997-409.497395L665.599667 409.599795h307.199847z" fill="#E66CFF" p-id="1908"></path><path d="M844.799578 204.799898a179.19991 179.19991 0 0 1 179.09751 173.055913L1023.999488 383.999808v460.79977a179.19991 179.19991 0 0 1-173.055913 179.09751L844.799578 1023.999488H153.599923a51.199974 51.199974 0 0 1-3.839998-102.271949L153.599923 921.599539h691.199655a76.799962 76.799962 0 0 0 76.671961-72.294364L921.599539 844.799578V383.999808a76.799962 76.799962 0 0 0-72.294364-76.671962L844.799578 307.199846H179.19991a76.799962 76.799962 0 0 0-76.671961 72.294364L102.399949 383.999808v383.999808a51.199974 51.199974 0 0 1-102.271949 3.839998L0 767.999616V383.999808a179.19991 179.19991 0 0 1 173.055913-179.09751L179.19991 204.799898h665.599668z" fill="#9013FE" p-id="1909"></path><path d="M588.799706 0a179.19991 179.19991 0 0 1 179.09751 173.055913L767.999616 179.19991v76.799962a51.199974 51.199974 0 0 1-102.271949 3.839998L665.599667 255.999872V179.19991a76.799962 76.799962 0 0 0-72.294364-76.671961L588.799706 102.399949H179.19991a76.799962 76.799962 0 0 0-76.671961 72.294364L102.399949 179.19991v383.999808a51.199974 51.199974 0 0 1-102.271949 3.839998L0 563.199718V179.19991A179.19991 179.19991 0 0 1 173.055913 0.1024L179.19991 0h409.599796z" fill="#9013FE" p-id="1910"></path><path d="M665.599667 665.599667a51.199974 51.199974 0 1 0 0-102.399949 51.199974 51.199974 0 0 0 0 102.399949z" fill="#FF9F00" p-id="1911"></path></svg>