<?xml version="1.0" standalone="no"?><!DOCTYPE svg PUBLIC "-//W3C//DTD SVG 1.1//EN" "http://www.w3.org/Graphics/SVG/1.1/DTD/svg11.dtd"><svg t="1598625761306" class="icon" viewBox="0 0 1024 1024" version="1.1" xmlns="http://www.w3.org/2000/svg" p-id="3086" xmlns:xlink="http://www.w3.org/1999/xlink" width="200" height="200"><defs><style type="text/css"></style></defs><path d="M631.253333 150.101333a65.365333 65.365333 0 0 1-65.194666 65.194667h-108.501334a64.981333 64.981333 0 1 1 0-129.962667h108.501334a65.28 65.28 0 0 1 65.194666 64.768z" fill="#030835" p-id="3087"></path><path d="M862.037333 369.834667v350.037333A218.88 218.88 0 0 1 643.285333 938.666667H380.714667a218.88 218.88 0 0 1-218.752-218.794667V369.834667a217.941333 217.941333 0 0 1 187.306666-215.68 108.970667 108.970667 0 0 0 108.458667 104.96h108.544a109.226667 109.226667 0 0 0 108.501333-104.96 218.325333 218.325333 0 0 1 187.306667 215.68z" fill="#FFB531" p-id="3088"></path><path d="M648.874667 708.949333a32.768 32.768 0 0 1-32.853334 32.810667H407.381333a32.853333 32.853333 0 1 1 0-65.664h208.725334a32.512 32.512 0 0 1 32.810666 32.853333zM719.786667 554.922667a32.768 32.768 0 0 1-32.853334 32.810666H336.896a32.853333 32.853333 0 1 1 0-65.621333H686.933333a33.066667 33.066667 0 0 1 32.853334 32.810667z" fill="#ffffff" p-id="3089" data-spm-anchor-id="a313x.7781069.0.i25" class="selected"></path></svg>