<?xml version="1.0" standalone="no"?><!DOCTYPE svg PUBLIC "-//W3C//DTD SVG 1.1//EN" "http://www.w3.org/Graphics/SVG/1.1/DTD/svg11.dtd"><svg t="1598889885642" class="icon" viewBox="0 0 1024 1024" version="1.1" xmlns="http://www.w3.org/2000/svg" p-id="1942" width="64" height="64" xmlns:xlink="http://www.w3.org/1999/xlink"><defs><style type="text/css"></style></defs><path d="M986.763636 79.127273H37.236364c-18.618182 0-37.236364 13.963636-37.236364 32.581818v749.381818c0 18.618182 18.618182 37.236364 37.236364 37.236364h949.527272c18.618182 0 37.236364-18.618182 37.236364-37.236364V111.709091c0-18.618182-18.618182-32.581818-37.236364-32.581818z m-37.236363 749.381818H74.472727V335.127273h879.709091v493.381818h-4.654545z m0-563.2H74.472727V148.945455h879.709091v116.363636h-4.654545z" fill="#303133" p-id="1943"></path><path d="M465.454545 572.509091h74.472728v121.018182H465.454545zM605.090909 572.509091h74.472727v121.018182H605.090909zM749.381818 572.509091h74.472727v121.018182h-74.472727z" fill="#303133" p-id="1944"></path></svg>