<?xml version="1.0" standalone="no"?><!DOCTYPE svg PUBLIC "-//W3C//DTD SVG 1.1//EN" "http://www.w3.org/Graphics/SVG/1.1/DTD/svg11.dtd"><svg t="1598889871717" class="icon" viewBox="0 0 1027 1024" version="1.1" xmlns="http://www.w3.org/2000/svg" p-id="1605" width="64.1875" height="64" xmlns:xlink="http://www.w3.org/1999/xlink"><defs><style type="text/css"></style></defs><path d="M1025.825978 390.981818c-4.654545-13.963636-13.963636-23.272727-27.927273-23.272727l-307.2-46.545455-139.636363-297.890909c-9.309091-13.963636-23.272727-23.272727-37.236364-23.272727-13.963636 0-27.927273 9.309091-32.581818 23.272727l-139.636364 297.890909-311.854545 46.545455c-9.309091-4.654545-23.272727 4.654545-27.927273 18.618182-4.654545 13.963636 0 27.927273 9.309091 37.236363l223.418182 232.727273-55.854546 325.818182c0 13.963636 4.654545 27.927273 13.963637 37.236364 18.618182 4.654545 32.581818 4.654545 41.890909 0l274.618182-153.6 274.618182 153.6c9.309091 4.654545 18.618182 4.654545 23.272727 4.654545 9.309091 0 13.963636 0 23.272727-4.654545 9.309091-9.309091 18.618182-23.272727 13.963636-37.236364l-51.2-325.818182 223.418182-228.072727c9.309091-13.963636 13.963636-27.927273 9.309091-37.236364z m-302.545454 228.072727c-9.309091 9.309091-13.963636 18.618182-9.309091 32.581819l41.890909 269.963636-223.418182-130.327273c-9.309091-4.654545-23.272727-4.654545-37.236364 0l-228.072727 125.672728 46.545455-269.963637c0-9.309091 0-23.272727-9.309091-32.581818L113.535069 423.563636 374.189615 386.327273c4.654545 0 4.654545 0 9.30909-4.654546 4.654545 0 4.654545-4.654545 9.309091-4.654545V372.363636l4.654546-4.654545L513.825978 121.018182l111.709091 242.036363c4.654545 9.309091 13.963636 18.618182 27.927273 18.618182l256 41.890909-186.181818 195.490909z" p-id="1606" fill="#303133" data-spm-anchor-id="a313x.7781069.0.i10" class="selected"></path></svg>