<?xml version="1.0" standalone="no"?><!DOCTYPE svg PUBLIC "-//W3C//DTD SVG 1.1//EN" "http://www.w3.org/Graphics/SVG/1.1/DTD/svg11.dtd"><svg t="1598329224432" class="icon" viewBox="0 0 1024 1024" version="1.1" xmlns="http://www.w3.org/2000/svg" p-id="2675" xmlns:xlink="http://www.w3.org/1999/xlink" width="200" height="200"><defs><style type="text/css"></style></defs><path d="M731.801746 15.001592a51.199974 51.199974 0 0 1 69.145566-2.995198l3.251198 2.995198 204.799898 204.799898a51.199974 51.199974 0 0 1 2.995198 69.145566l-2.995198 3.251198-716.799642 716.774042a51.199974 51.199974 0 0 1-31.692784 14.796792l-4.505598 0.2048L51.200486 1023.999488a51.199974 51.199974 0 0 1-51.071974-47.359976L0.000512 972.799514v-204.799898a51.199974 51.199974 0 0 1 102.271949-3.839998L102.400461 767.999616v153.574323l132.377534-0.0256L900.352062 255.974272 768.000128 123.622338 240.998792 650.598075a51.199974 51.199974 0 0 1-69.145566 2.995198l-3.251198-2.995198a51.199974 51.199974 0 0 1-2.995199-69.145566l2.995199-3.251198 563.199718-563.199719z" fill="#9013FE" p-id="2676"></path><path d="M972.800026 921.573939a51.199974 51.199974 0 0 1 3.839998 102.246349L972.800026 1023.999488H563.20023a51.199974 51.199974 0 0 1-3.839998-102.271949L563.20023 921.599539h409.599796z" fill="#E66CFF" p-id="2677"></path><path d="M742.400141 281.599859m-51.199975 0a51.199974 51.199974 0 1 0 102.399949 0 51.199974 51.199974 0 1 0-102.399949 0Z" fill="#FF9F00" p-id="2678"></path></svg>