<?xml version="1.0" standalone="no"?><!DOCTYPE svg PUBLIC "-//W3C//DTD SVG 1.1//EN" "http://www.w3.org/Graphics/SVG/1.1/DTD/svg11.dtd"><svg t="1598329174118" class="icon" viewBox="0 0 1137 1024" version="1.1" xmlns="http://www.w3.org/2000/svg" p-id="2214" xmlns:xlink="http://www.w3.org/1999/xlink" width="222.0703125" height="200"><defs><style type="text/css"></style></defs><path d="M938.666667 0a199.111111 199.111111 0 0 1 198.997333 192.284444L1137.777778 199.111111v455.111111a199.111111 199.111111 0 0 1-192.284445 198.997334L938.666667 853.333333H550.172444a85.333333 85.333333 0 0 0-61.667555 26.368l-3.896889 4.323556-99.555556 119.495111a56.888889 56.888889 0 0 1-90.254222-69.12l2.844445-3.697778 99.555555-119.495111a199.111111 199.111111 0 0 1 144.924445-71.480889l8.049777-0.170666H938.666667a85.333333 85.333333 0 0 0 85.191111-80.327112L1024 654.222222V199.111111a85.333333 85.333333 0 0 0-80.327111-85.191111L938.666667 113.777778H199.111111a85.333333 85.333333 0 0 0-85.191111 80.327111L113.777778 199.111111v455.111111a85.333333 85.333333 0 0 0 80.327111 85.191111L199.111111 739.555556h28.444445a56.888889 56.888889 0 0 1 4.266666 113.635555L227.555556 853.333333h-28.444445a199.111111 199.111111 0 0 1-198.997333-192.284444L0 654.222222V199.111111a199.111111 199.111111 0 0 1 192.284444-198.997333L199.111111 0h739.555556z" fill="#9013FE" p-id="2215"></path><path d="M341.333333 426.666667m-56.888889 0a56.888889 56.888889 0 1 0 113.777778 0 56.888889 56.888889 0 1 0-113.777778 0Z" fill="#FF9F00" p-id="2216"></path><path d="M568.888889 426.666667m-56.888889 0a56.888889 56.888889 0 1 0 113.777778 0 56.888889 56.888889 0 1 0-113.777778 0Z" fill="#E66CFF" p-id="2217"></path><path d="M796.444444 426.666667m-56.888888 0a56.888889 56.888889 0 1 0 113.777777 0 56.888889 56.888889 0 1 0-113.777777 0Z" fill="#E66CFF" p-id="2218"></path></svg>